<?xml version="1.0" standalone="no"?><!DOCTYPE svg PUBLIC "-//W3C//DTD SVG 1.1//EN" "http://www.w3.org/Graphics/SVG/1.1/DTD/svg11.dtd"><svg t="1640332313249" class="icon" viewBox="0 0 1024 1024" version="1.1" xmlns="http://www.w3.org/2000/svg" p-id="3545" xmlns:xlink="http://www.w3.org/1999/xlink" width="200" height="200"><defs><style type="text/css"></style></defs><path d="M872.8 812.4h-38.4V313.6c0-5.6-3.2-10.8-8-13.2l-220-115.2c-10.4-5.6-22.8 2-22.8 13.2v614h-26.8V111.2c0-10.4-10.8-17.6-20.8-14l-336 120c-6 2-10 8-10 14V812H133.6c-8.4 0-15.2 8-15.2 18v35.6c0 10 6.8 18 15.2 18h739.2c8.4 0 15.2-8 15.2-18v-35.6c0.4-9.6-6.4-17.6-15.2-17.6zM662.4 319.6c0-12.4 10.4-22.8 23.2-22.8h40.8c12.8 0 23.2 10 23.2 22.8v15.2c0 12.4-10.4 22.8-23.2 22.8h-40.8c-12.8 0-23.2-10-23.2-22.8v-15.2z m0 90.8c0-12.4 10.4-22.8 23.2-22.8h40.8c12.8 0 23.2 10 23.2 22.8v15.2c0 12.4-10.4 22.8-23.2 22.8h-40.8c-12.8 0-23.2-10-23.2-22.8v-15.2z m0 90.8c0-12.4 10.4-22.8 23.2-22.8h40.8c12.8 0 23.2 10 23.2 22.8v15.2c0 12.4-10.4 22.8-23.2 22.8h-40.8c-12.8 0-23.2-10-23.2-22.8v-15.2z m0 92.8c0-12.4 10.4-22.8 23.2-22.8h40.8c12.8 0 23.2 10 23.2 22.8v15.2c0 12.4-10.4 22.8-23.2 22.8h-40.8c-12.8 0-23.2-10-23.2-22.8v-15.2z m0 88c0-12.4 10.4-22.8 23.2-22.8h40.8c12.8 0 23.2 10 23.2 22.8v15.2c0 12.4-10.4 22.8-23.2 22.8h-40.8c-12.8 0-23.2-10-23.2-22.8v-15.2zM399.6 231.2c0-12.4 10.4-22.8 23.2-22.8h40.8c12.8 0 23.2 10 23.2 22.8v15.2c0 12.4-10.4 22.8-23.2 22.8h-40.8c-12.8 0-23.2-10-23.2-22.8v-15.2z m0 88.4c0-12.4 10.4-22.8 23.2-22.8h40.8c12.8 0 23.2 10 23.2 22.8v15.2c0 12.4-10.4 22.8-23.2 22.8h-40.8c-12.8 0-23.2-10-23.2-22.8v-15.2z m0 90.8c0-12.4 10.4-22.8 23.2-22.8h40.8c12.8 0 23.2 10 23.2 22.8v15.2c0 12.4-10.4 22.8-23.2 22.8h-40.8c-12.8 0-23.2-10-23.2-22.8v-15.2z m0 90.8c0-12.4 10.4-22.8 23.2-22.8h40.8c12.8 0 23.2 10 23.2 22.8v15.2c0 12.4-10.4 22.8-23.2 22.8h-40.8c-12.8 0-23.2-10-23.2-22.8v-15.2z m0 92.8c0-12.4 10.4-22.8 23.2-22.8h40.8c12.8 0 23.2 10 23.2 22.8v15.2c0 12.4-10.4 22.8-23.2 22.8h-40.8c-12.8 0-23.2-10-23.2-22.8v-15.2z m0 88c0-12.4 10.4-22.8 23.2-22.8h40.8c12.8 0 23.2 10 23.2 22.8v15.2c0 12.4-10.4 22.8-23.2 22.8h-40.8c-12.8 0-23.2-10-23.2-22.8v-15.2zM262 319.6c0-12.4 10.4-22.8 23.2-22.8h40.8c12.8 0 23.2 10 23.2 22.8v15.2c0 12.4-10.4 22.8-23.2 22.8H285.2c-12.8 0-23.2-10-23.2-22.8v-15.2z m0 90.8c0-12.4 10.4-22.8 23.2-22.8h40.8c12.8 0 23.2 10 23.2 22.8v15.2c0 12.4-10.4 22.8-23.2 22.8H285.2c-12.8 0-23.2-10-23.2-22.8v-15.2z m0 90.8c0-12.4 10.4-22.8 23.2-22.8h40.8c12.8 0 23.2 10 23.2 22.8v15.2c0 12.4-10.4 22.8-23.2 22.8H285.2c-12.8 0-23.2-10-23.2-22.8v-15.2z m0 92.8c0-12.4 10.4-22.8 23.2-22.8h40.8c12.8 0 23.2 10 23.2 22.8v15.2c0 12.4-10.4 22.8-23.2 22.8H285.2c-12.8 0-23.2-10-23.2-22.8v-15.2z m0 88c0-12.4 10.4-22.8 23.2-22.8h40.8c12.8 0 23.2 10 23.2 22.8v15.2c0 12.4-10.4 22.8-23.2 22.8H285.2c-12.8 0-23.2-10-23.2-22.8v-15.2z m0 0" fill="#3F51B5" p-id="3546"></path><path d="M124 848m-36 0a36 36 0 1 0 72 0 36 36 0 1 0-72 0Z" fill="#3F51B5" p-id="3547"></path><path d="M884 848m-36 0a36 36 0 1 0 72 0 36 36 0 1 0-72 0Z" fill="#3F51B5" p-id="3548"></path><path d="M120 812h764v72H120z" fill="#3F51B5" p-id="3549"></path></svg>